{"accessors" : [{"bufferView" : 0, "byteOffset" : 0, "componentType" : 5123, "count" : 13908, "type" : "SCALAR", "max" : [13907], "min" : [0]}, {"bufferView" : 1, "byteOffset" : 0, "componentType" : 5126, "count" : 13908, "type" : "VEC3", "max" : [42.58195114135742, 42.58195114135742, 10.219670295715332], "min" : [-42.58195114135742, -42.58195114135742, 0], "name" : "POSITION"}, {"bufferView" : 1, "byteOffset" : 12, "componentType" : 5126, "count" : 13908, "type" : "VEC3", "max" : [1.0000044107437134, 1.0000044107437134, 1.0000044107437134], "min" : [-1.0000044107437134, -1.0000044107437134, -1.0000044107437134], "name" : "NORMAL"}], "asset" : {"generator" : "Aspose.3D 23.2", "version" : "2.0"}, "buffers" : [{"uri" : "data:application/octet-stream;base64,", "byteLength" : 361616}], "bufferViews" : [{"buffer" : 0, "byteOffset" : 0, "byteLength" : 27816, "target" : 34963}, {"buffer" : 0, "byteOffset" : 27820, "byteLength" : 333792, "byteStride" : 24, "target" : 34962}], "meshes" : [{"primitives" : [{"attributes" : {"POSITION" : 1, "NORMAL" : 2}, "indices" : 0, "mode" : 4}], "name" : "Default"}], "nodes" : [{"mesh" : 0, "name" : "Default"}], "scene" : 0, "scenes" : [{"nodes" : [0]}]}